<svg xmlns="http://www.w3.org/2000/svg" xmlns:xlink="http://www.w3.org/1999/xlink" contentStyleType="text/css" data-diagram-type="DESCRIPTION" height="690px" preserveAspectRatio="none" style="width:1531px;height:690px;background:#FFFFFF;" version="1.1" viewBox="0 0 1531 690" width="1531px" zoomAndPan="magnify"><title>Market Data Processing System - High Level Architecture</title><defs/><g><text fill="#000000" font-family="Verdana" font-size="22" font-weight="bold" lengthAdjust="spacing" textLength="713.3564" x="404.3218" y="35.4209">Market Data Processing System - High Level Architecture</text><!--cluster Data Layer--><g class="cluster" data-entity="Data Layer" data-source-line="9" data-uid="ent0002" id="cluster_Data Layer"><rect fill="#FFFFFF" height="122.6" rx="2.5" ry="2.5" style="stroke:#000000;stroke-width:1;" width="294" x="987" y="217.8694"/><text fill="#000000" font-family="Verdana" font-size="14" font-weight="bold" lengthAdjust="spacing" textLength="85.9756" x="1091.0122" y="232.8645">Data Layer</text></g><!--cluster Core Processing--><g class="cluster" data-entity="Core Processing" data-source-line="14" data-uid="ent0007" id="cluster_Core Processing"><rect fill="#FFFFFF" height="110.26" rx="2.5" ry="2.5" style="stroke:#000000;stroke-width:1;" width="673" x="852" y="389.4694"/><text fill="#000000" font-family="Verdana" font-size="14" font-weight="bold" lengthAdjust="spacing" textLength="127.1963" x="1124.9019" y="404.4645">Core Processing</text></g><!--cluster Network Communication--><g class="cluster" data-entity="Network Communication" data-source-line="22" data-uid="ent0016" id="cluster_Network Communication"><rect fill="#FFFFFF" height="275.69" rx="2.5" ry="2.5" style="stroke:#000000;stroke-width:1;" width="389" x="439" y="224.0394"/><text fill="#000000" font-family="Verdana" font-size="14" font-weight="bold" lengthAdjust="spacing" textLength="194.168" x="536.416" y="239.0345">Network Communication</text></g><!--cluster Applications--><g class="cluster" data-entity="Applications" data-source-line="30" data-uid="ent0025" id="cluster_Applications"><rect fill="#FFFFFF" height="110.26" rx="2.5" ry="2.5" style="stroke:#000000;stroke-width:1;" width="715" x="496" y="58.6094"/><text fill="#000000" font-family="Verdana" font-size="14" font-weight="bold" lengthAdjust="spacing" textLength="97.6309" x="804.6846" y="73.6045">Applications</text></g><!--cluster Support Libraries--><g class="cluster" data-entity="Support Libraries" data-source-line="38" data-uid="ent0034" id="cluster_Support Libraries"><rect fill="#FFFFFF" height="122.59" rx="2.5" ry="2.5" style="stroke:#000000;stroke-width:1;" width="692" x="12" y="561.8694"/><text fill="#000000" font-family="Verdana" font-size="14" font-weight="bold" lengthAdjust="spacing" textLength="137.8057" x="289.0972" y="576.8645">Support Libraries</text></g><!--entity DBNFile--><g class="entity" data-entity="DBNFile" data-source-line="10" data-uid="ent0003" id="entity_DBNFile"><rect fill="#FFFFFF" height="52.5938" rx="2.5" ry="2.5" style="stroke:#000000;stroke-width:1;" width="79.7529" x="1003.12" y="271.8694"/><text fill="#000000" font-family="Verdana" font-size="14" font-style="italic" lengthAdjust="spacing" textLength="38.4521" x="1023.7704" y="294.8645">&#171;file&#187;</text><text fill="#000000" font-family="Verdana" font-size="14" lengthAdjust="spacing" textLength="59.7529" x="1013.12" y="311.1614">DBN File</text></g><g class="entity" data-entity="GMN4" data-source-line="11" data-uid="ent0005" id="entity_GMN4"><path d="M1117.42,278.0394 L1117.42,294.1694 L1083.18,298.1694 L1117.42,302.1694 L1117.42,318.305 A0,0 0 0 0 1117.42,318.305 L1264.5733,318.305 A0,0 0 0 0 1264.5733,318.305 L1264.5733,288.0394 L1254.5733,278.0394 L1117.42,278.0394 A0,0 0 0 0 1117.42,278.0394" fill="#FFFFFF" style="stroke:#000000;stroke-width:1;"/><path d="M1254.5733,278.0394 L1254.5733,288.0394 L1264.5733,288.0394 L1254.5733,278.0394" fill="#FFFFFF" style="stroke:#000000;stroke-width:1;"/><text fill="#000000" font-family="Verdana" font-size="13" lengthAdjust="spacing" textLength="97.7412" x="1123.42" y="295.1063">CLX5_mbo.dbn</text><text fill="#000000" font-family="Verdana" font-size="13" lengthAdjust="spacing" textLength="126.1533" x="1123.42" y="310.2391">Market data source</text></g><!--entity Streamer--><g class="entity" data-entity="Streamer" data-source-line="15" data-uid="ent0008" id="entity_Streamer"><rect fill="#FFFFFF" height="36.2969" rx="2.5" ry="2.5" style="stroke:#000000;stroke-width:1;" width="85.3311" x="868.33" y="445.4494"/><text fill="#000000" font-family="Verdana" font-size="14" lengthAdjust="spacing" textLength="65.3311" x="878.33" y="468.4445">Streamer</text></g><g class="entity" data-entity="GMN9" data-source-line="16" data-uid="ent0010" id="entity_GMN9"><path d="M988.44,443.4694 L988.44,459.5994 L953.91,463.5994 L988.44,467.5994 L988.44,483.735 A0,0 0 0 0 988.44,483.735 L1179.5635,483.735 A0,0 0 0 0 1179.5635,483.735 L1179.5635,453.4694 L1169.5635,443.4694 L988.44,443.4694 A0,0 0 0 0 988.44,443.4694" fill="#FFFFFF" style="stroke:#000000;stroke-width:1;"/><path d="M1169.5635,443.4694 L1169.5635,453.4694 L1179.5635,453.4694 L1169.5635,443.4694" fill="#FFFFFF" style="stroke:#000000;stroke-width:1;"/><text fill="#000000" font-family="Verdana" font-size="13" lengthAdjust="spacing" textLength="170.1235" x="994.44" y="460.5363">File-based data streaming</text><text fill="#000000" font-family="Verdana" font-size="13" lengthAdjust="spacing" textLength="127.061" x="994.44" y="475.6691">DBN file processing</text></g><!--entity OrderBook--><g class="entity" data-entity="OrderBook" data-source-line="18" data-uid="ent0012" id="entity_OrderBook"><rect fill="#FFFFFF" height="36.2969" rx="2.5" ry="2.5" style="stroke:#000000;stroke-width:1;" width="99.3242" x="1214.34" y="445.4494"/><text fill="#000000" font-family="Verdana" font-size="14" lengthAdjust="spacing" textLength="79.3242" x="1224.34" y="468.4445">Order Book</text></g><g class="entity" data-entity="GMN13" data-source-line="19" data-uid="ent0014" id="entity_GMN13"><path d="M1348.71,443.4694 L1348.71,459.5994 L1313.95,463.5994 L1348.71,467.5994 L1348.71,483.735 A0,0 0 0 0 1348.71,483.735 L1509.2823,483.735 A0,0 0 0 0 1509.2823,483.735 L1509.2823,453.4694 L1499.2823,443.4694 L1348.71,443.4694 A0,0 0 0 0 1348.71,443.4694" fill="#FFFFFF" style="stroke:#000000;stroke-width:1;"/><path d="M1499.2823,443.4694 L1499.2823,453.4694 L1509.2823,453.4694 L1499.2823,443.4694" fill="#FFFFFF" style="stroke:#000000;stroke-width:1;"/><text fill="#000000" font-family="Verdana" font-size="13" lengthAdjust="spacing" textLength="137.5156" x="1354.71" y="460.5363">Real-time order book</text><text fill="#000000" font-family="Verdana" font-size="13" lengthAdjust="spacing" textLength="139.5723" x="1354.71" y="475.6691">Bid/Ask management</text></g><!--entity TCPSender--><g class="entity" data-entity="TCPSender" data-source-line="23" data-uid="ent0017" id="entity_TCPSender"><rect fill="#FFFFFF" height="36.2969" rx="2.5" ry="2.5" style="stroke:#000000;stroke-width:1;" width="100.8486" x="454.58" y="280.0194"/><text fill="#000000" font-family="Verdana" font-size="14" lengthAdjust="spacing" textLength="80.8486" x="464.58" y="303.0145">TCP Sender</text></g><g class="entity" data-entity="GMN18" data-source-line="24" data-uid="ent0019" id="entity_GMN18"><path d="M590.83,278.0394 L590.83,294.1694 L555.76,298.1694 L590.83,302.1694 L590.83,318.305 A0,0 0 0 0 590.83,318.305 L775.1679,318.305 A0,0 0 0 0 775.1679,318.305 L775.1679,288.0394 L765.1679,278.0394 L590.83,278.0394 A0,0 0 0 0 590.83,278.0394" fill="#FFFFFF" style="stroke:#000000;stroke-width:1;"/><path d="M765.1679,278.0394 L765.1679,288.0394 L775.1679,288.0394 L765.1679,278.0394" fill="#FFFFFF" style="stroke:#000000;stroke-width:1;"/><text fill="#000000" font-family="Verdana" font-size="13" lengthAdjust="spacing" textLength="163.3379" x="596.83" y="295.1063">High-performance server</text><text fill="#000000" font-family="Verdana" font-size="13" lengthAdjust="spacing" textLength="138.2393" x="596.83" y="310.2391">Streams market data</text></g><!--entity TCPReceiver--><g class="entity" data-entity="TCPReceiver" data-source-line="26" data-uid="ent0021" id="entity_TCPReceiver"><rect fill="#FFFFFF" height="36.2969" rx="2.5" ry="2.5" style="stroke:#000000;stroke-width:1;" width="112.415" x="454.79" y="445.4494"/><text fill="#000000" font-family="Verdana" font-size="14" lengthAdjust="spacing" textLength="92.415" x="464.79" y="468.4445">TCP Receiver</text></g><g class="entity" data-entity="GMN22" data-source-line="27" data-uid="ent0023" id="entity_GMN22"><path d="M601.8,443.4694 L601.8,459.5994 L567.66,463.5994 L601.8,467.5994 L601.8,483.735 A0,0 0 0 0 601.8,483.735 L812.2014,483.735 A0,0 0 0 0 812.2014,483.735 L812.2014,453.4694 L802.2014,443.4694 L601.8,443.4694 A0,0 0 0 0 601.8,443.4694" fill="#FFFFFF" style="stroke:#000000;stroke-width:1;"/><path d="M802.2014,443.4694 L802.2014,453.4694 L812.2014,453.4694 L802.2014,443.4694" fill="#FFFFFF" style="stroke:#000000;stroke-width:1;"/><text fill="#000000" font-family="Verdana" font-size="13" lengthAdjust="spacing" textLength="157.8916" x="607.8" y="460.5363">High-performance client</text><text fill="#000000" font-family="Verdana" font-size="13" lengthAdjust="spacing" textLength="189.4014" x="607.8" y="475.6691">Receives and processes data</text></g><!--entity SenderApp--><g class="entity" data-entity="SenderApp" data-source-line="31" data-uid="ent0026" id="entity_SenderApp"><rect fill="#FFFFFF" height="36.2969" rx="2.5" ry="2.5" style="stroke:#000000;stroke-width:1;" width="101.4297" x="512.29" y="114.5894"/><text fill="#000000" font-family="Verdana" font-size="14" lengthAdjust="spacing" textLength="81.4297" x="522.29" y="137.5845">Sender App</text></g><g class="entity" data-entity="GMN27" data-source-line="32" data-uid="ent0028" id="entity_GMN27"><path d="M649.03,112.6094 L649.03,128.7394 L613.93,132.7394 L649.03,136.7394 L649.03,152.875 A0,0 0 0 0 649.03,152.875 L826.9695,152.875 A0,0 0 0 0 826.9695,152.875 L826.9695,122.6094 L816.9695,112.6094 L649.03,112.6094 A0,0 0 0 0 649.03,112.6094" fill="#FFFFFF" style="stroke:#000000;stroke-width:1;"/><path d="M816.9695,112.6094 L816.9695,122.6094 L826.9695,122.6094 L816.9695,112.6094" fill="#FFFFFF" style="stroke:#000000;stroke-width:1;"/><text fill="#000000" font-family="Verdana" font-size="13" lengthAdjust="spacing" textLength="153.5752" x="655.03" y="129.6763">TCP_Sender executable</text><text fill="#000000" font-family="Verdana" font-size="13" lengthAdjust="spacing" textLength="156.9395" x="655.03" y="144.8091">Loads and streams data</text></g><!--entity ReceiverApp--><g class="entity" data-entity="ReceiverApp" data-source-line="34" data-uid="ent0030" id="entity_ReceiverApp"><rect fill="#FFFFFF" height="36.2969" rx="2.5" ry="2.5" style="stroke:#000000;stroke-width:1;" width="112.9961" x="861.5" y="114.5894"/><text fill="#000000" font-family="Verdana" font-size="14" lengthAdjust="spacing" textLength="92.9961" x="871.5" y="137.5845">Receiver App</text></g><g class="entity" data-entity="GMN31" data-source-line="35" data-uid="ent0032" id="entity_GMN31"><path d="M1009.34,112.6094 L1009.34,128.7394 L974.78,132.7394 L1009.34,136.7394 L1009.34,152.875 A0,0 0 0 0 1009.34,152.875 L1194.6554,152.875 A0,0 0 0 0 1194.6554,152.875 L1194.6554,122.6094 L1184.6554,112.6094 L1009.34,112.6094 A0,0 0 0 0 1009.34,112.6094" fill="#FFFFFF" style="stroke:#000000;stroke-width:1;"/><path d="M1184.6554,112.6094 L1184.6554,122.6094 L1194.6554,122.6094 L1184.6554,112.6094" fill="#FFFFFF" style="stroke:#000000;stroke-width:1;"/><text fill="#000000" font-family="Verdana" font-size="13" lengthAdjust="spacing" textLength="164.3154" x="1015.34" y="129.6763">TCP_Receiver executable</text><text fill="#000000" font-family="Verdana" font-size="13" lengthAdjust="spacing" textLength="148.7446" x="1015.34" y="144.8091">Processes market data</text></g><!--entity DatabentoLib--><g class="entity" data-entity="DatabentoLib" data-source-line="39" data-uid="ent0035" id="entity_DatabentoLib"><rect fill="#FFFFFF" height="52.5938" rx="2.5" ry="2.5" style="stroke:#000000;stroke-width:1;" width="118.8818" x="167.56" y="615.8694"/><text fill="#000000" font-family="Verdana" font-size="14" font-style="italic" lengthAdjust="spacing" textLength="62.1729" x="195.9145" y="638.8645">&#171;library&#187;</text><text fill="#000000" font-family="Verdana" font-size="14" lengthAdjust="spacing" textLength="98.8818" x="177.56" y="655.1614">Databento Lib</text></g><g class="entity" data-entity="GMN36" data-source-line="40" data-uid="ent0037" id="entity_GMN36"><path d="M513.98,622.0294 L513.98,662.295 L688.022,662.295 L688.022,632.0294 L678.022,622.0294 L513.98,622.0294" fill="#FFFFFF" style="stroke:#000000;stroke-width:1;"/><path d="M678.022,622.0294 L678.022,632.0294 L688.022,632.0294 L678.022,622.0294" fill="#FFFFFF" style="stroke:#000000;stroke-width:1;"/><text fill="#000000" font-family="Verdana" font-size="13" lengthAdjust="spacing" textLength="153.042" x="519.98" y="639.0963">Market data processing</text><text fill="#000000" font-family="Verdana" font-size="13" lengthAdjust="spacing" textLength="130.4316" x="519.98" y="654.2291">DBN format support</text></g><!--entity SystemLib--><g class="entity" data-entity="SystemLib" data-source-line="42" data-uid="ent0039" id="entity_SystemLib"><rect fill="#FFFFFF" height="52.5938" rx="2.5" ry="2.5" style="stroke:#000000;stroke-width:1;" width="104.5264" x="27.74" y="615.8694"/><text fill="#000000" font-family="Verdana" font-size="14" font-style="italic" lengthAdjust="spacing" textLength="62.1729" x="48.9168" y="638.8645">&#171;library&#187;</text><text fill="#000000" font-family="Verdana" font-size="14" lengthAdjust="spacing" textLength="84.5264" x="37.74" y="655.1614">System Libs</text></g><g class="entity" data-entity="GMN40" data-source-line="43" data-uid="ent0041" id="entity_GMN40"><path d="M321.17,622.0294 L321.17,662.295 L478.8223,662.295 L478.8223,632.0294 L468.8223,622.0294 L321.17,622.0294" fill="#FFFFFF" style="stroke:#000000;stroke-width:1;"/><path d="M468.8223,622.0294 L468.8223,632.0294 L478.8223,632.0294 L468.8223,622.0294" fill="#FFFFFF" style="stroke:#000000;stroke-width:1;"/><text fill="#000000" font-family="Verdana" font-size="13" lengthAdjust="spacing" textLength="101.0928" x="327.17" y="639.0963">Networking, I/O</text><text fill="#000000" font-family="Verdana" font-size="13" lengthAdjust="spacing" textLength="136.6523" x="327.17" y="654.2291">Socket programming</text></g><g class="entity" data-entity="GMN56" data-source-line="68" data-uid="ent0057" id="entity_GMN56"><path d="M232.23,428.3294 L232.23,498.8606 A0,0 0 0 0 232.23,498.8606 L419.7798,498.8606 A0,0 0 0 0 419.7798,498.8606 L419.7798,438.3294 L409.7798,428.3294 L368.05,428.3294 L485.84,316.6594 L360.05,428.3294 L232.23,428.3294 A0,0 0 0 0 232.23,428.3294" fill="#FFFFFF" style="stroke:#000000;stroke-width:1;"/><path d="M409.7798,428.3294 L409.7798,438.3294 L419.7798,438.3294 L409.7798,428.3294" fill="#FFFFFF" style="stroke:#000000;stroke-width:1;"/><text fill="#000000" font-family="Verdana" font-size="13" lengthAdjust="spacing" textLength="148.478" x="238.23" y="445.3963">Performance Features:</text><text fill="#000000" font-family="Verdana" font-size="13" lengthAdjust="spacing" textLength="142.3462" x="238.23" y="460.5291">- Memory-mapped I/O</text><text fill="#000000" font-family="Verdana" font-size="13" lengthAdjust="spacing" textLength="166.5498" x="238.23" y="475.6619">- Zero-copy optimizations</text><text fill="#000000" font-family="Verdana" font-size="13" lengthAdjust="spacing" textLength="146.4722" x="238.23" y="490.7947">- Large buffers (16MB)</text></g><g class="entity" data-entity="GMN59" data-source-line="75" data-uid="ent0060" id="entity_GMN59"><path d="M723.41,606.8994 L723.41,677.4306 L898.5882,677.4306 L898.5882,616.8994 L888.5882,606.8994 L723.41,606.8994" fill="#FFFFFF" style="stroke:#000000;stroke-width:1;"/><path d="M888.5882,606.8994 L888.5882,616.8994 L898.5882,616.8994 L888.5882,606.8994" fill="#FFFFFF" style="stroke:#000000;stroke-width:1;"/><text fill="#000000" font-family="Verdana" font-size="13" lengthAdjust="spacing" textLength="148.478" x="729.41" y="623.9663">Performance Features:</text><text fill="#000000" font-family="Verdana" font-size="13" lengthAdjust="spacing" textLength="145.9707" x="729.41" y="639.0991">- Real-time processing</text><text fill="#000000" font-family="Verdana" font-size="13" lengthAdjust="spacing" textLength="154.1782" x="729.41" y="654.2319">- Threaded architecture</text><text fill="#000000" font-family="Verdana" font-size="13" lengthAdjust="spacing" textLength="125.5693" x="729.41" y="669.3647">- Statistics tracking</text></g><g class="entity" data-entity="GMN62" data-source-line="82" data-uid="ent0063" id="entity_GMN62"><path d="M1173.67,606.8994 L1173.67,677.4306 A0,0 0 0 0 1173.67,677.4306 L1354.3263,677.4306 A0,0 0 0 0 1354.3263,677.4306 L1354.3263,616.8994 L1344.3263,606.8994 L1268,606.8994 L1264,482.1794 L1260,606.8994 L1173.67,606.8994 A0,0 0 0 0 1173.67,606.8994" fill="#FFFFFF" style="stroke:#000000;stroke-width:1;"/><path d="M1344.3263,606.8994 L1344.3263,616.8994 L1354.3263,616.8994 L1344.3263,606.8994" fill="#FFFFFF" style="stroke:#000000;stroke-width:1;"/><text fill="#000000" font-family="Verdana" font-size="13" lengthAdjust="spacing" textLength="139.0645" x="1179.67" y="623.9663">Order Book Features:</text><text fill="#000000" font-family="Verdana" font-size="13" lengthAdjust="spacing" textLength="149.5444" x="1179.67" y="639.0991">- Bid/Ask level tracking</text><text fill="#000000" font-family="Verdana" font-size="13" lengthAdjust="spacing" textLength="159.6563" x="1179.67" y="654.2319">- Multi-publisher support</text><text fill="#000000" font-family="Verdana" font-size="13" lengthAdjust="spacing" textLength="125.8677" x="1179.67" y="669.3647">- Price-time priority</text></g><!--link DatabentoLib to GMN36--><g class="link" data-entity-1="DatabentoLib" data-entity-2="GMN36" data-source-line="40" data-uid="lnk38" id="link_DatabentoLib_GMN36"><path d="M240.5,615.6294 C255.94,588.5594 283.99,548.1594 321.5,530.7994 C384.82,501.4894 413.42,505.6394 478.5,530.7994 C525.68,549.0394 565.89,594.8394 586.41,621.6794" fill="none" id="DatabentoLib-GMN36" style="stroke:#000000;stroke-width:1;stroke-dasharray:7.0,7.0;"/></g><!--link SystemLib to GMN40--><g class="link" data-entity-1="SystemLib" data-entity-2="GMN40" data-source-line="43" data-uid="lnk42" id="link_SystemLib_GMN40"><path d="M91.98,615.6894 C105.84,588.6794 131.45,548.3194 167.5,530.7994 C215.07,507.6794 237.54,510.7894 286.5,530.7994 C331.48,549.1794 368.26,594.9194 386.85,621.7194" fill="none" id="SystemLib-GMN40" style="stroke:#000000;stroke-width:1;stroke-dasharray:7.0,7.0;"/></g><!--link DBNFile to Streamer--><g class="link" data-entity-1="DBNFile" data-entity-2="Streamer" data-source-line="47" data-uid="lnk43" id="link_DBNFile_Streamer"><path d="M1034.86,324.7494 C1028.42,340.9894 1017.83,361.1894 1002,373.4694 C990.76,382.1894 982.8,373.5094 971,381.4694 C947.03,397.6294 931.8301,421.3476 922.0601,439.9476" fill="none" id="DBNFile-to-Streamer" style="stroke:#000000;stroke-width:1;"/><polygon fill="#000000" points="919.27,445.2594,926.9964,439.1518,921.5951,440.8329,919.914,435.4316,919.27,445.2594" style="stroke:#000000;stroke-width:1;"/><text fill="#000000" font-family="Verdana" font-size="13" lengthAdjust="spacing" textLength="36.334" x="1018" y="369.5363">reads</text></g><!--link Streamer to TCPSender--><g class="link" data-entity-1="Streamer" data-entity-2="TCPSender" data-source-line="48" data-uid="lnk44" id="link_Streamer_TCPSender"><path d="M897.11,445.1694 C881.86,427.0494 855.81,398.9394 828,381.4694 C800.38,364.1194 791,362.7994 759,356.4694 C718.41,348.4394 612.07,362.0694 573,348.4694 C554,341.8494 540.2161,332.0125 527.4061,320.6925" fill="none" id="Streamer-to-TCPSender" style="stroke:#000000;stroke-width:1;"/><polygon fill="#000000" points="522.91,316.7194,527.0054,325.6764,526.6567,320.0303,532.3028,319.6816,522.91,316.7194" style="stroke:#000000;stroke-width:1;"/><text fill="#000000" font-family="Verdana" font-size="13" lengthAdjust="spacing" textLength="65.0127" x="814" y="369.5363">processes</text></g><!--link TCPSender to TCPReceiver--><g class="link" data-entity-1="TCPSender" data-entity-2="TCPReceiver" data-source-line="49" data-uid="lnk45" id="link_TCPSender_TCPReceiver"><path d="M526.04,316.7794 C538.98,327.0094 556.26,339.5794 573,348.4694 C582.19,353.3494 589.03,347.9494 595,356.4694 C599.33,362.6594 598.43,366.7294 595,373.4694 C592.26,378.8494 588.49,377.4194 584,381.4694 C561.62,401.6394 542.6815,423.4073 528.6615,440.5273" fill="none" id="TCPSender-to-TCPReceiver" style="stroke:#000000;stroke-width:1;"/><polygon fill="#000000" points="524.86,445.1694,533.6569,440.7406,528.0279,441.301,527.4675,435.672,524.86,445.1694" style="stroke:#000000;stroke-width:1;"/><text fill="#000000" font-family="Verdana" font-size="13" lengthAdjust="spacing" textLength="152.9722" x="598" y="369.5363">TCP stream (port 8080)</text></g><!--link TCPSender to TCPReceiver--><g class="link" data-entity-1="TCPSender" data-entity-2="TCPReceiver" data-source-line="65" data-uid="lnk55" id="link_TCPSender_TCPReceiver"><path d="M496.32,316.7394 C491.33,327.8394 485.56,342.6394 483,356.4694 C477.13,388.1294 488.567,418.8529 498.817,439.7429" fill="none" id="TCPSender-to-TCPReceiver-1" style="stroke:#0000FF;stroke-width:1;"/><polygon fill="#0000FF" points="501.46,445.1294,501.0865,435.2876,499.2575,440.6406,493.9045,438.8116,501.46,445.1294" style="stroke:#0000FF;stroke-width:1;"/><text fill="#000000" font-family="Verdana" font-size="13" lengthAdjust="spacing" textLength="102.5464" x="484" y="369.5363">TCP Connection</text></g><!--link TCPReceiver to OrderBook--><g class="link" data-entity-1="TCPReceiver" data-entity-2="OrderBook" data-source-line="50" data-uid="lnk46" id="link_TCPReceiver_OrderBook"><path d="M521.03,445.1294 C533.02,425.1894 555.15,394.5294 584,381.4694 C667.61,343.6094 905.22,378.7294 997,379.2394 C1085.89,379.7394 1116.91,342.8994 1197,381.4694 C1224.52,394.7194 1241.6846,420.0316 1252.3446,439.9116" fill="none" id="TCPReceiver-to-OrderBook" style="stroke:#000000;stroke-width:1;"/><polygon fill="#000000" points="1255.18,445.1994,1254.4521,435.3775,1252.8172,440.7929,1247.4017,439.158,1255.18,445.1994" style="stroke:#000000;stroke-width:1;"/><text fill="#000000" font-family="Verdana" font-size="13" lengthAdjust="spacing" textLength="52.5776" x="944" y="369.5363">updates</text></g><!--link SenderApp to TCPSender--><g class="link" data-entity-1="SenderApp" data-entity-2="TCPSender" data-source-line="53" data-uid="lnk47" id="link_SenderApp_TCPSender"><path d="M556.79,151.2294 C545.63,182.6894 524.2963,242.7847 513.1663,274.1547" fill="none" id="SenderApp-to-TCPSender" style="stroke:#000000;stroke-width:1;"/><polygon fill="#000000" points="511.16,279.8094,517.9391,272.6649,512.8319,275.0972,510.3996,269.9899,511.16,279.8094" style="stroke:#000000;stroke-width:1;"/><text fill="#000000" font-family="Verdana" font-size="13" lengthAdjust="spacing" textLength="48.3247" x="545" y="197.9363">creates</text></g><!--link ReceiverApp to TCPReceiver--><g class="link" data-entity-1="ReceiverApp" data-entity-2="TCPReceiver" data-source-line="54" data-uid="lnk48" id="link_ReceiverApp_TCPReceiver"><path d="M922.41,151.2894 C932.53,196.1494 951.87,315.5794 888,373.4694 C875.48,384.8094 599.34,374.3894 584,381.4694 C555.09,394.7994 535.8233,420.4625 523.8333,440.0425" fill="none" id="ReceiverApp-to-TCPReceiver" style="stroke:#000000;stroke-width:1;"/><polygon fill="#000000" points="520.7,445.1594,528.8113,439.573,523.3111,440.8953,521.9888,435.3952,520.7,445.1594" style="stroke:#000000;stroke-width:1;"/><text fill="#000000" font-family="Verdana" font-size="13" lengthAdjust="spacing" textLength="48.3247" x="934" y="302.7363">creates</text></g><!--link ReceiverApp to OrderBook--><g class="link" data-entity-1="ReceiverApp" data-entity-2="OrderBook" data-source-line="55" data-uid="lnk49" id="link_ReceiverApp_OrderBook"><path d="M942.11,151.2394 C956.01,160.4294 974.22,170.9694 992,176.8694 C1053.34,197.2494 1237.96,161.6394 1281,209.8694 C1341.31,277.4694 1296.0714,394.4749 1275.1114,439.7349" fill="none" id="ReceiverApp-to-OrderBook" style="stroke:#000000;stroke-width:1;"/><polygon fill="#000000" points="1272.59,445.1794,1280.0017,438.6935,1274.6911,440.6423,1272.7424,435.3317,1272.59,445.1794" style="stroke:#000000;stroke-width:1;"/><text fill="#000000" font-family="Verdana" font-size="13" lengthAdjust="spacing" textLength="48.3247" x="1311" y="302.7363">creates</text></g><!--link Streamer to DatabentoLib--><g class="link" data-entity-1="Streamer" data-entity-2="DatabentoLib" data-source-line="58" data-uid="lnk50" id="link_Streamer_DatabentoLib"><path d="M883.7,482.1594 C868.03,491.3594 847.61,501.8994 828,507.7294 C663.61,556.6294 614.98,532.4994 444,545.8694 C428.47,547.0794 318.01,547.0494 304,553.8694 C276.74,567.1194 258.2447,589.7688 244.9047,610.4288" fill="none" id="Streamer-to-DatabentoLib" style="stroke:#000000;stroke-width:1;"/><polygon fill="#000000" points="241.65,615.4694,249.8923,610.0783,244.3622,611.2689,243.1716,605.7388,241.65,615.4694" style="stroke:#000000;stroke-width:1;"/><text fill="#000000" font-family="Verdana" font-size="13" lengthAdjust="spacing" textLength="29.7832" x="742" y="541.9363">uses</text></g><!--link TCPSender to DatabentoLib--><g class="link" data-entity-1="TCPSender" data-entity-2="DatabentoLib" data-source-line="59" data-uid="lnk51" id="link_TCPSender_DatabentoLib"><path d="M454.14,304.6994 C372.22,314.7794 216.89,339.0794 184,381.4694 C129.51,451.6894 179.6751,559.9031 208.3451,610.3431" fill="none" id="TCPSender-to-DatabentoLib" style="stroke:#000000;stroke-width:1;"/><polygon fill="#000000" points="211.31,615.5594,210.3401,605.7584,208.8392,611.2125,203.3851,609.7116,211.31,615.5594" style="stroke:#000000;stroke-width:1;"/><text fill="#000000" font-family="Verdana" font-size="13" lengthAdjust="spacing" textLength="29.7832" x="185" y="468.1663">uses</text></g><!--link TCPSender to SystemLib--><g class="link" data-entity-1="TCPSender" data-entity-2="SystemLib" data-source-line="60" data-uid="lnk52" id="link_TCPSender_SystemLib"><path d="M454.17,302.3594 C359.55,309.4594 162.24,330.1994 121,381.4694 C65.35,450.6394 69.9159,558.6474 75.6559,609.4174" fill="none" id="TCPSender-to-SystemLib" style="stroke:#000000;stroke-width:1;"/><polygon fill="#000000" points="76.33,615.3794,79.2936,605.987,75.7683,610.411,71.3442,606.8857,76.33,615.3794" style="stroke:#000000;stroke-width:1;"/><text fill="#000000" font-family="Verdana" font-size="13" lengthAdjust="spacing" textLength="29.7832" x="122" y="468.1663">uses</text></g><!--link TCPReceiver to DatabentoLib--><g class="link" data-entity-1="TCPReceiver" data-entity-2="DatabentoLib" data-source-line="61" data-uid="lnk53" id="link_TCPReceiver_DatabentoLib"><path d="M481.13,482.0494 C467.65,489.9094 451.53,499.2994 437,507.7294 C407.7,524.7394 403.14,535.1694 371,545.8694 C342.55,555.3394 330.55,539.9294 304,553.8694 C277.34,567.8594 258.944,590.1376 245.454,610.4976" fill="none" id="TCPReceiver-to-DatabentoLib" style="stroke:#000000;stroke-width:1;"/><polygon fill="#000000" points="242.14,615.4994,250.4455,610.2061,244.9017,611.3313,243.7765,605.7874,242.14,615.4994" style="stroke:#000000;stroke-width:1;"/><text fill="#000000" font-family="Verdana" font-size="13" lengthAdjust="spacing" textLength="29.7832" x="406" y="541.9363">uses</text></g><!--link TCPReceiver to SystemLib--><g class="link" data-entity-1="TCPReceiver" data-entity-2="SystemLib" data-source-line="62" data-uid="lnk54" id="link_TCPReceiver_SystemLib"><path d="M486.11,482.2194 C472.27,491.2094 454.36,501.5194 437,507.7294 C315.36,551.2494 261.65,488.8694 150,553.8694 C125.15,568.3294 108.7198,590.1001 96.6798,610.2301" fill="none" id="TCPReceiver-to-SystemLib" style="stroke:#000000;stroke-width:1;"/><polygon fill="#000000" points="93.6,615.3794,101.6526,609.7087,96.1665,611.0883,94.7869,605.6023,93.6,615.3794" style="stroke:#000000;stroke-width:1;"/><text fill="#000000" font-family="Verdana" font-size="13" lengthAdjust="spacing" textLength="29.7832" x="206" y="541.9363">uses</text></g><!--link TCPReceiver to GMN59--><g class="link" data-entity-1="TCPReceiver" data-entity-2="GMN59" data-source-line="75" data-uid="lnk61" id="link_TCPReceiver_GMN59"><path d="M538.14,482.0994 C551.63,490.4194 568.36,500.1694 584,507.7294 C635.44,532.5994 654.58,525.1894 704,553.8694 C729.3,568.5394 754.79,589.0594 774.54,606.5094" fill="none" id="TCPReceiver-GMN59" style="stroke:#000000;stroke-width:1;stroke-dasharray:7.0,7.0;"/></g><!--SRC=[XPPVJnin3C3VxrDuyB0XxGPxs8GGGe9EQ9CAL9I7QUk4SZctZPfBeYG7wwPzzpcvFqtBLVIbvzYnV-VOphtnIwmGZ6H2PMubb66MLL0mlbfONQjofAMsS7WTVua5rvNH2fMV-hL4iCWzKmk9YOaX9so1kmQP5vuMRfXTeOSlp3EOMCtHEQ4MC5qxZnNay5KibZ369vHmQVbIU79GMzhUkeM3k7NCrcWFu6y6zEkXI7br2zT2uW4m1oI4PpW_dzFVnKKqLjeJ5aNneEUzoHcCnjy_FLQ5_b0MQgPQp3B4Shgs7BD_2SD8Mqpm1q2ctYAh0YE1TC80GASYWW2I5ynXsSQDAd8_K-6rmZk0wMD6NxjHxsn9hgwqNiMuKGpIGE1UHv7laSdS2we87HqKj3nJLw8yldGhg9YYbwuem5OERj4_Qxk2aQwgMWdElD1g81CFembCKPLjBaXif06cNaTCeH1oWtQkBG5m18Vs2UrCDHbpXDKVqM0kGjnxv2YUDf4xUJXsfnsApgKWhpFLsZXWgknEWwH8aMRdqXZPviGDbKVpccJL54WKIHgga4v7M0Jvs6x5tyXhpmg9CpNMh6o8N9kSlLdftx4BtIqC1q-qRVZUGGemwHEHdagQZsbjZBOUngAmp0eSIahex8AUTB1gEhXReGLgOnathuSxEJKzWxI1DqtJTb8uL0-kGHfCKpkFo9Th3YZAhrDixCwWRH0A-nw-7TzHvMeUc0XdGOCoT7P8qLjY5QeXdKlzd7KpASylql503wNB-eMWJVkbhyLiizhQ97KTcgAf4NWNp-FqvFJaA4kDmgPqEDI6qCWjWIP5JJYogUwbC8JL5-ak5wTWONjQII-vzbcb89qDWJHLj8OIJOYZE1NKTcfsog5-cPZNBTB3xDHRQThZOilcXHF2xqOdrqhH_KPPJ2F_F2naZRzUv2XEj56_vI3BOkqLsdjTROrFAin9ChkkAMzqXxepMi_X1Yjjrtd5ZA6RXWephlv0gtEkpHgqePj0_6aED-h6p58B5_LyZjR1ku-VRwwECWeKQt-88Xcp-pasbyxMfPR3mpAKEh6nz0CWQAQUg9mNt86tD5d2ZhqSwUMtkHTt8BexJiOlZjvfp5CjlSXDNKZXbhHxCovokle5nmvUQ2lyUWFo7m00]--></g></svg>